<?xml version="1.0" standalone="yes"?>

<svg version="1.1" viewBox="0.0 0.0 960.0 720.0" fill="none" stroke="none" stroke-linecap="square" stroke-miterlimit="10" xmlns="http://www.w3.org/2000/svg" xmlns:xlink="http://www.w3.org/1999/xlink"><clipPath id="p.0"><path d="m0 0l960.0 0l0 720.0l-960.0 0l0 -720.0z" clip-rule="nonzero"></path></clipPath><g clip-path="url(#p.0)"><path fill="#000000" fill-opacity="0.0" d="m0 0l960.0 0l0 720.0l-960.0 0z" fill-rule="nonzero"></path><path fill="#cfe2f3" d="m380.51968 158.42783l0 0c0 -54.941467 44.53885 -99.480316 99.480316 -99.480316l0 0c26.38382 0 51.68701 10.48093 70.3432 29.137112c18.656189 18.656174 29.137085 43.95939 29.137085 70.34321l0 0c0 54.941452 -44.53882 99.480316 -99.480286 99.480316l0 0c-54.941467 0 -99.480316 -44.538864 -99.480316 -99.480316z" fill-rule="nonzero"></path><path stroke="#000000" stroke-width="2.0" stroke-linejoin="round" stroke-linecap="butt" d="m380.51968 158.42783l0 0c0 -54.941467 44.53885 -99.480316 99.480316 -99.480316l0 0c26.38382 0 51.68701 10.48093 70.3432 29.137112c18.656189 18.656174 29.137085 43.95939 29.137085 70.34321l0 0c0 54.941452 -44.53882 99.480316 -99.480286 99.480316l0 0c-54.941467 0 -99.480316 -44.538864 -99.480316 -99.480316z" fill-rule="nonzero"></path><path fill="#000000" d="m459.22943 160.58218l1.796875 0.453125q-0.5625 2.21875 -2.03125 3.390625q-1.46875 1.15625 -3.59375 1.15625q-2.203125 0 -3.578125 -0.890625q-1.375 -0.90625 -2.09375 -2.59375q-0.71875 -1.703125 -0.71875 -3.65625q0 -2.125 0.796875 -3.703125q0.8125 -1.578125 2.3125 -2.390625q1.5 -0.828125 3.296875 -0.828125q2.046875 0 3.4375 1.046875q1.390625 1.03125 1.9375 2.90625l-1.765625 0.421875q-0.46875 -1.484375 -1.375 -2.15625q-0.90625 -0.6875 -2.265625 -0.6875q-1.5625 0 -2.625 0.75q-1.046875 0.75 -1.484375 2.03125q-0.421875 1.265625 -0.421875 2.609375q0 1.734375 0.5 3.03125q0.515625 1.28125 1.578125 1.921875q1.078125 0.640625 2.3125 0.640625q1.515625 0 2.5625 -0.859375q1.046875 -0.875 1.421875 -2.59375zm10.301056 1.59375l1.71875 0.21875q-0.40625 1.5 -1.515625 2.34375q-1.09375 0.828125 -2.8125 0.828125q-2.15625 0 -3.421875 -1.328125q-1.265625 -1.328125 -1.265625 -3.734375q0 -2.484375 1.265625 -3.859375q1.28125 -1.375 3.328125 -1.375q1.984375 0 3.234375 1.34375q1.25 1.34375 1.25 3.796875q0 0.140625 -0.015625 0.4375l-7.34375 0q0.09375 1.625 0.921875 2.484375q0.828125 0.859375 2.0625 0.859375q0.90625 0 1.546875 -0.46875q0.65625 -0.484375 1.046875 -1.546875zm-5.484375 -2.703125l5.5 0q-0.109375 -1.234375 -0.625 -1.859375q-0.796875 -0.96875 -2.078125 -0.96875q-1.140625 0 -1.9375 0.78125q-0.78125 0.765625 -0.859375 2.046875zm9.110107 9.65625l0 -13.640625l1.53125 0l0 1.28125q0.53125 -0.75 1.203125 -1.125q0.6875 -0.375 1.640625 -0.375q1.265625 0 2.234375 0.65625q0.96875 0.640625 1.453125 1.828125q0.5 1.1875 0.5 2.59375q0 1.515625 -0.546875 2.734375q-0.546875 1.203125 -1.578125 1.84375q-1.03125 0.640625 -2.171875 0.640625q-0.84375 0 -1.515625 -0.34375q-0.65625 -0.359375 -1.078125 -0.890625l0 4.796875l-1.671875 0zm1.515625 -8.65625q0 1.90625 0.765625 2.8125q0.78125 0.90625 1.875 0.90625q1.109375 0 1.890625 -0.9375q0.796875 -0.9375 0.796875 -2.921875q0 -1.875 -0.78125 -2.8125q-0.765625 -0.9375 -1.84375 -0.9375q-1.0625 0 -1.890625 1.0q-0.8125 1.0 -0.8125 2.890625zm8.875702 -4.984375l3.84375 0q1.421875 0 2.109375 0.25q0.6875 0.234375 1.1875 0.859375q0.5 0.625 0.5 1.515625q0 0.703125 -0.296875 1.234375q-0.28125 0.515625 -0.875 0.875q0.703125 0.21875 1.15625 0.859375q0.46875 0.640625 0.46875 1.515625q-0.09375 1.390625 -1.015625 2.078125q-0.90625 0.671875 -2.640625 0.671875l-4.4375 0l0 -9.859375zm1.671875 4.15625l1.78125 0q1.0625 0 1.453125 -0.109375q0.40625 -0.109375 0.71875 -0.453125q0.3125 -0.34375 0.3125 -0.8125q0 -0.78125 -0.546875 -1.078125q-0.546875 -0.3125 -1.890625 -0.3125l-1.828125 0l0 2.765625zm0 4.328125l2.1875 0q1.421875 0 1.953125 -0.328125q0.53125 -0.328125 0.5625 -1.140625q0 -0.46875 -0.3125 -0.875q-0.3125 -0.40625 -0.796875 -0.5q-0.484375 -0.109375 -1.578125 -0.109375l-2.015625 0l0 2.953125zm8.223633 -8.484375l1.671875 0l0 7.515625l4.625 -7.515625l1.8125 0l0 9.859375l-1.671875 0l0 -7.46875l-4.640625 7.46875l-1.796875 0l0 -9.859375zm16.858765 6.25l1.640625 0.21875q-0.265625 1.6875 -1.375 2.65625q-1.109375 0.953125 -2.734375 0.953125q-2.015625 0 -3.25 -1.3125q-1.21875 -1.328125 -1.21875 -3.796875q0 -1.59375 0.515625 -2.78125q0.53125 -1.203125 1.609375 -1.796875q1.09375 -0.609375 2.359375 -0.609375q1.609375 0 2.625 0.8125q1.015625 0.8125 1.3125 2.3125l-1.625 0.25q-0.234375 -1.0 -0.828125 -1.5q-0.59375 -0.5 -1.421875 -0.5q-1.265625 0 -2.0625 0.90625q-0.78125 0.90625 -0.78125 2.859375q0 1.984375 0.765625 2.890625q0.765625 0.890625 1.984375 0.890625q0.984375 0 1.640625 -0.59375q0.65625 -0.609375 0.84375 -1.859375z" fill-rule="nonzero"></path><path fill="#cfe2f3" d="m79.67716 547.2703l0 0c0 -54.941437 44.538857 -99.480286 99.48032 -99.480286l0 0c26.38382 0 51.687027 10.4809265 70.3432 29.137085c18.656174 18.656189 29.1371 43.95941 29.1371 70.3432l0 0c0 54.941467 -44.53885 99.48035 -99.4803 99.48035l0 0c-54.941467 0 -99.48032 -44.53888 -99.48032 -99.48035z" fill-rule="nonzero"></path><path stroke="#000000" stroke-width="2.0" stroke-linejoin="round" stroke-linecap="butt" d="m79.67716 547.2703l0 0c0 -54.941437 44.538857 -99.480286 99.48032 -99.480286l0 0c26.38382 0 51.687027 10.4809265 70.3432 29.137085c18.656174 18.656189 29.1371 43.95941 29.1371 70.3432l0 0c0 54.941467 -44.53885 99.48035 -99.4803 99.48035l0 0c-54.941467 0 -99.48032 -44.53888 -99.48032 -99.48035z" fill-rule="nonzero"></path><path fill="#000000" d="m139.85667 554.1903l0 -13.59375l5.125 0q1.359375 0 2.078125 0.125q1.0 0.171875 1.671875 0.640625q0.671875 0.46875 1.078125 1.3125q0.421875 0.84375 0.421875 1.84375q0 1.734375 -1.109375 2.9375q-1.09375 1.203125 -3.984375 1.203125l-3.484375 0l0 5.53125l-1.796875 0zm1.796875 -7.140625l3.515625 0q1.75 0 2.46875 -0.640625q0.734375 -0.65625 0.734375 -1.828125q0 -0.859375 -0.4375 -1.46875q-0.421875 -0.609375 -1.125 -0.796875q-0.453125 -0.125 -1.671875 -0.125l-3.484375 0l0 4.859375zm17.177948 3.96875l1.71875 0.21875q-0.40625 1.5 -1.515625 2.34375q-1.09375 0.828125 -2.8125 0.828125q-2.15625 0 -3.421875 -1.328125q-1.265625 -1.328125 -1.265625 -3.734375q0 -2.484375 1.265625 -3.859375q1.28125 -1.375 3.328125 -1.375q1.984375 0 3.234375 1.34375q1.25 1.34375 1.25 3.796875q0 0.140625 -0.015625 0.4375l-7.34375 0q0.09375 1.625 0.921875 2.484375q0.828125 0.859375 2.0625 0.859375q0.90625 0 1.546875 -0.46875q0.65625 -0.484375 1.046875 -1.546875zm-5.484375 -2.703125l5.5 0q-0.109375 -1.234375 -0.625 -1.859375q-0.796875 -0.96875 -2.078125 -0.96875q-1.140625 0 -1.9375 0.78125q-0.78125 0.765625 -0.859375 2.046875zm10.422592 -3.984375l6.875 0l0 8.484375l1.0625 0l0 4.171875l-1.375 0l0 -2.796875l-7.75 0l0 2.796875l-1.375 0l0 -4.171875l0.875 0q1.765625 -2.390625 1.6875 -8.484375zm1.40625 1.390625q-0.1875 4.796875 -1.484375 7.09375l5.296875 0l0 -7.09375l-3.8125 0zm14.604599 7.25q-0.9375 0.796875 -1.796875 1.125q-0.859375 0.3125 -1.84375 0.3125q-1.609375 0 -2.484375 -0.78125q-0.875 -0.796875 -0.875 -2.03125q0 -0.734375 0.328125 -1.328125q0.328125 -0.59375 0.859375 -0.953125q0.53125 -0.359375 1.203125 -0.546875q0.5 -0.140625 1.484375 -0.25q2.03125 -0.25 2.984375 -0.578125q0 -0.34375 0 -0.4375q0 -1.015625 -0.46875 -1.4375q-0.640625 -0.5625 -1.90625 -0.5625q-1.171875 0 -1.734375 0.40625q-0.5625 0.40625 -0.828125 1.46875l-1.640625 -0.234375q0.234375 -1.046875 0.734375 -1.6875q0.515625 -0.640625 1.46875 -0.984375q0.96875 -0.359375 2.25 -0.359375q1.265625 0 2.046875 0.296875q0.78125 0.296875 1.15625 0.75q0.375 0.453125 0.515625 1.140625q0.09375 0.421875 0.09375 1.53125l0 2.234375q0 2.328125 0.09375 2.953125q0.109375 0.609375 0.4375 1.171875l-1.75 0q-0.265625 -0.515625 -0.328125 -1.21875zm-0.140625 -3.71875q-0.90625 0.359375 -2.734375 0.625q-1.03125 0.140625 -1.453125 0.328125q-0.421875 0.1875 -0.65625 0.546875q-0.234375 0.359375 -0.234375 0.796875q0 0.671875 0.5 1.125q0.515625 0.4375 1.484375 0.4375q0.96875 0 1.71875 -0.421875q0.75 -0.4375 1.109375 -1.15625q0.265625 -0.578125 0.265625 -1.671875l0 -0.609375zm4.078842 -4.921875l1.65625 0l0 4.265625q0.8125 0 1.125 -0.296875q0.3125 -0.3125 0.9375 -1.796875q0.5 -1.15625 0.796875 -1.53125q0.3125 -0.375 0.703125 -0.5q0.40625 -0.140625 1.28125 -0.140625l0.34375 0l0 1.390625l-0.46875 -0.015625q-0.65625 0 -0.84375 0.203125q-0.1875 0.203125 -0.59375 1.21875q-0.375 0.953125 -0.703125 1.328125q-0.3125 0.375 -0.96875 0.671875q1.078125 0.296875 2.125 2.015625l1.828125 3.046875l-1.84375 0l-1.78125 -3.046875q-0.546875 -0.921875 -0.953125 -1.21875q-0.40625 -0.296875 -0.984375 -0.296875l0 4.5625l-1.65625 0l0 -9.859375zm7.2714844 0l8.0 0l0 1.390625l-3.171875 0l0 8.46875l-1.65625 0l0 -8.46875l-3.171875 0l0 -1.390625zm8.810333 4.9375q0 -2.734375 1.53125 -4.0625q1.265625 -1.09375 3.09375 -1.09375q2.03125 0 3.3125 1.34375q1.296875 1.328125 1.296875 3.671875q0 1.90625 -0.578125 3.0q-0.5625 1.078125 -1.65625 1.6875q-1.078125 0.59375 -2.375 0.59375q-2.0625 0 -3.34375 -1.328125q-1.28125 -1.328125 -1.28125 -3.8125zm1.71875 0q0 1.890625 0.828125 2.828125q0.828125 0.9375 2.078125 0.9375q1.25 0 2.0625 -0.9375q0.828125 -0.953125 0.828125 -2.890625q0 -1.828125 -0.828125 -2.765625q-0.828125 -0.9375 -2.0625 -0.9375q-1.25 0 -2.078125 0.9375q-0.828125 0.9375 -0.828125 2.828125zm9.281967 8.703125l0 -13.640625l1.53125 0l0 1.28125q0.53125 -0.75 1.203125 -1.125q0.6875 -0.375 1.640625 -0.375q1.265625 0 2.234375 0.65625q0.96875 0.640625 1.453125 1.828125q0.5 1.1875 0.5 2.59375q0 1.515625 -0.546875 2.734375q-0.546875 1.203125 -1.578125 1.84375q-1.03125 0.640625 -2.171875 0.640625q-0.84375 0 -1.515625 -0.34375q-0.65625 -0.359375 -1.078125 -0.890625l0 4.796875l-1.671875 0zm1.515625 -8.65625q0 1.90625 0.765625 2.8125q0.78125 0.90625 1.875 0.90625q1.109375 0 1.890625 -0.9375q0.796875 -0.9375 0.796875 -2.921875q0 -1.875 -0.78125 -2.8125q-0.765625 -0.9375 -1.84375 -0.9375q-1.0625 0 -1.890625 1.0q-0.8125 1.0 -0.8125 2.890625z" fill-rule="nonzero"></path><path fill="#cfe2f3" d="m667.2572 547.2703l0 0c0 -54.941437 44.53888 -99.480286 99.48035 -99.480286l0 0c26.38379 0 51.68701 10.4809265 70.3432 29.137085c18.656189 18.656189 29.137085 43.95941 29.137085 70.3432l0 0c0 54.941467 -44.53882 99.48035 -99.480286 99.48035l0 0c-54.941467 0 -99.48035 -44.53888 -99.48035 -99.48035z" fill-rule="nonzero"></path><path stroke="#000000" stroke-width="2.0" stroke-linejoin="round" stroke-linecap="butt" d="m667.2572 547.2703l0 0c0 -54.941437 44.53888 -99.480286 99.48035 -99.480286l0 0c26.38379 0 51.68701 10.4809265 70.3432 29.137085c18.656189 18.656189 29.137085 43.95941 29.137085 70.3432l0 0c0 54.941467 -44.53882 99.48035 -99.480286 99.48035l0 0c-54.941467 0 -99.48035 -44.53888 -99.48035 -99.48035z" fill-rule="nonzero"></path><path fill="#000000" d="m737.5385 540.59656l1.796875 0l0 5.953125q1.234375 0 1.734375 -0.46875q0.5 -0.484375 1.28125 -2.3125q0.5625 -1.328125 0.921875 -1.875q0.375 -0.5625 1.046875 -0.9375q0.6875 -0.375 1.5 -0.375q1.03125 0 1.09375 0.015625l0 1.5625q-0.09375 0 -0.359375 -0.015625q-0.296875 0 -0.359375 0q-0.875 0 -1.28125 0.40625q-0.4375 0.421875 -0.984375 1.78125q-0.6875 1.734375 -1.15625 2.1875q-0.46875 0.4375 -1.125 0.71875q1.3125 0.359375 2.59375 2.421875l2.796875 4.53125l-2.234375 0l-2.265625 -3.6875q-0.9375 -1.53125 -1.578125 -2.09375q-0.625 -0.578125 -1.625 -0.578125l0 6.359375l-1.796875 0l0 -13.59375zm11.430115 3.734375l7.765625 0l0 9.859375l-1.65625 0l0 -8.46875l-4.4375 0l0 4.90625q0 1.71875 -0.109375 2.265625q-0.109375 0.546875 -0.609375 0.953125q-0.5 0.40625 -1.453125 0.40625q-0.578125 0 -1.34375 -0.078125l0 -1.390625l0.734375 0q0.515625 0 0.734375 -0.09375q0.234375 -0.109375 0.296875 -0.34375q0.078125 -0.234375 0.078125 -1.515625l0 -6.5zm10.073364 0l1.671875 0l0 7.515625l4.625 -7.515625l1.8125 0l0 9.859375l-1.671875 0l0 -7.46875l-4.640625 7.46875l-1.796875 0l0 -9.859375zm17.171265 6.6875l1.71875 0.21875q-0.40625 1.5 -1.515625 2.34375q-1.09375 0.828125 -2.8125 0.828125q-2.15625 0 -3.421875 -1.328125q-1.265625 -1.328125 -1.265625 -3.734375q0 -2.484375 1.265625 -3.859375q1.28125 -1.375 3.328125 -1.375q1.984375 0 3.234375 1.34375q1.25 1.34375 1.25 3.796875q0 0.140625 -0.015625 0.4375l-7.34375 0q0.09375 1.625 0.921875 2.484375q0.828125 0.859375 2.0625 0.859375q0.90625 0 1.546875 -0.46875q0.65625 -0.484375 1.046875 -1.546875zm-5.484375 -2.703125l5.5 0q-0.109375 -1.234375 -0.625 -1.859375q-0.796875 -0.96875 -2.078125 -0.96875q-1.140625 0 -1.9375 0.78125q-0.78125 0.765625 -0.859375 2.046875zm9.125732 -3.984375l1.671875 0l0 4.109375l4.625 0l0 -4.109375l1.671875 0l0 9.859375l-1.671875 0l0 -4.375l-4.625 0l0 4.375l-1.671875 0l0 -9.859375zm9.396606 0l8.0 0l0 1.390625l-3.171875 0l0 8.46875l-1.65625 0l0 -8.46875l-3.171875 0l0 -1.390625z" fill-rule="nonzero"></path><path fill="#000000" fill-opacity="0.0" d="m276.84253 570.5276l406.3307 27.370056" fill-rule="nonzero"></path><path stroke="#000000" stroke-width="2.0" stroke-linejoin="round" stroke-linecap="butt" d="m288.8154 571.33405l382.38498 25.757141" fill-rule="evenodd"></path><path fill="#000000" stroke="#000000" stroke-width="2.0" stroke-linecap="butt" d="m289.0374 568.038l-9.27771 2.6860352l8.833679 3.9060059z" fill-rule="evenodd"></path><path fill="#000000" stroke="#000000" stroke-width="2.0" stroke-linecap="butt" d="m670.97833 600.38715l9.27771 -2.6860352l-8.833679 -3.9059448z" fill-rule="evenodd"></path><path fill="#000000" fill-opacity="0.0" d="m696.39435 476.92712l-163.74805 -227.46455" fill-rule="nonzero"></path><path stroke="#000000" stroke-width="2.0" stroke-linejoin="round" stroke-linecap="butt" d="m689.3834 467.18817l-149.72626 -207.98663" fill-rule="evenodd"></path><path fill="#000000" stroke="#000000" stroke-width="2.0" stroke-linecap="butt" d="m686.7024 469.1182l7.9837646 5.436035l-2.621704 -9.296082z" fill-rule="evenodd"></path><path fill="#000000" stroke="#000000" stroke-width="2.0" stroke-linecap="butt" d="m542.3382 257.2715l-7.9837036 -5.436035l2.621704 9.296082z" fill-rule="evenodd"></path><path fill="#000000" fill-opacity="0.0" d="m736.8425 453.68503l-171.59058 -239.99998" fill-rule="nonzero"></path><path stroke="#000000" stroke-width="2.0" stroke-linejoin="round" stroke-linecap="butt" d="m736.8425 453.68503l-164.61133 -230.2383" fill-rule="evenodd"></path><path fill="#000000" stroke="#000000" stroke-width="2.0" stroke-linecap="butt" d="m574.91846 221.52542l-7.9660034 -5.4619446l2.5914307 9.30455z" fill-rule="evenodd"></path><path fill="#000000" fill-opacity="0.0" d="m667.2572 547.2703l-390.42517 -30.42517" fill-rule="nonzero"></path><path stroke="#000000" stroke-width="2.0" stroke-linejoin="round" stroke-linecap="butt" d="m667.2572 547.2703l-378.46146 -29.492859" fill-rule="evenodd"></path><path fill="#000000" stroke="#000000" stroke-width="2.0" stroke-linecap="butt" d="m289.0524 514.484l-9.30542 2.5883179l8.792114 3.9985962z" fill-rule="evenodd"></path><path fill="#000000" fill-opacity="0.0" d="m215.79852 454.7238l193.85828 -225.95276" fill-rule="nonzero"></path><path stroke="#000000" stroke-width="2.0" stroke-linejoin="round" stroke-linecap="butt" d="m215.79854 454.7238l186.04448 -216.84537" fill-rule="evenodd"></path><path fill="#000000" stroke="#000000" stroke-width="2.0" stroke-linecap="butt" d="m404.35016 240.02946l3.4028015 -9.039429l-8.417114 4.737335z" fill-rule="evenodd"></path><path fill="#000000" fill-opacity="0.0" d="m458.9475 594.73755l30.519684 0l0 33.574768l-30.519684 0z" fill-rule="nonzero"></path><path fill="#000000" d="m475.02563 621.65753l-1.671875 0l0 -10.640625q-0.59375 0.578125 -1.578125 1.15625q-0.984375 0.5625 -1.765625 0.859375l0 -1.625q1.40625 -0.65625 2.453125 -1.59375q1.046875 -0.9375 1.484375 -1.8125l1.078125 0l0 13.65625z" fill-rule="nonzero"></path><path fill="#000000" fill-opacity="0.0" d="m591.36743 346.40683l30.519714 0l0 33.5748l-30.519714 0z" fill-rule="nonzero"></path><path fill="#000000" d="m609.92993 371.71744l0 1.609375l-8.984375 0q-0.015625 -0.609375 0.1875 -1.15625q0.34375 -0.921875 1.09375 -1.8125q0.765625 -0.890625 2.1875 -2.0625q2.21875 -1.8125 3.0 -2.875q0.78125 -1.0625 0.78125 -2.015625q0 -0.984375 -0.71875 -1.671875q-0.703125 -0.6875 -1.84375 -0.6875q-1.203125 0 -1.9375 0.734375q-0.71875 0.71875 -0.71875 2.0l-1.71875 -0.171875q0.171875 -1.921875 1.328125 -2.921875q1.15625 -1.015625 3.09375 -1.015625q1.953125 0 3.09375 1.09375q1.140625 1.078125 1.140625 2.6875q0 0.8125 -0.34375 1.609375q-0.328125 0.78125 -1.109375 1.65625q-0.765625 0.859375 -2.5625 2.390625q-1.5 1.265625 -1.9375 1.71875q-0.421875 0.4375 -0.703125 0.890625l6.671875 0z" fill-rule="nonzero"></path><path fill="#000000" fill-opacity="0.0" d="m635.7874 324.96063l30.519653 0l0 33.5748l-30.519653 0z" fill-rule="nonzero"></path><path fill="#000000" d="m645.5843 348.28687l1.671875 -0.21875q0.28125 1.421875 0.96875 2.046875q0.703125 0.625 1.6875 0.625q1.1875 0 2.0 -0.8125q0.8125 -0.828125 0.8125 -2.03125q0 -1.140625 -0.765625 -1.890625q-0.75 -0.75 -1.90625 -0.75q-0.46875 0 -1.171875 0.1875l0.1875 -1.46875q0.15625 0.015625 0.265625 0.015625q1.0625 0 1.90625 -0.546875q0.859375 -0.5625 0.859375 -1.71875q0 -0.921875 -0.625 -1.515625q-0.609375 -0.609375 -1.59375 -0.609375q-0.96875 0 -1.625 0.609375q-0.640625 0.609375 -0.828125 1.84375l-1.671875 -0.296875q0.296875 -1.6875 1.375 -2.609375q1.09375 -0.921875 2.71875 -0.921875q1.109375 0 2.046875 0.484375q0.9375 0.46875 1.421875 1.296875q0.5 0.828125 0.5 1.75q0 0.890625 -0.46875 1.609375q-0.46875 0.71875 -1.40625 1.15625q1.21875 0.265625 1.875 1.15625q0.671875 0.875 0.671875 2.1875q0 1.78125 -1.296875 3.015625q-1.296875 1.234375 -3.28125 1.234375q-1.796875 0 -2.984375 -1.0625q-1.171875 -1.0625 -1.34375 -2.765625z" fill-rule="nonzero"></path><path fill="#000000" fill-opacity="0.0" d="m457.68765 522.1102l30.519684 0l0 33.57483l-30.519684 0z" fill-rule="nonzero"></path><path fill="#000000" d="m472.82828 549.0302l0 -3.25l-5.90625 0l0 -1.53125l6.21875 -8.8125l1.359375 0l0 8.8125l1.84375 0l0 1.53125l-1.84375 0l0 3.25l-1.671875 0zm0 -4.78125l0 -6.140625l-4.25 6.140625l4.25 0z" fill-rule="nonzero"></path><path fill="#000000" fill-opacity="0.0" d="m309.26248 324.96063l30.519684 0l0 33.5748l-30.519684 0z" fill-rule="nonzero"></path><path fill="#000000" d="m319.04373 348.3181l1.765625 -0.15625q0.1875 1.28125 0.890625 1.9375q0.71875 0.640625 1.71875 0.640625q1.203125 0 2.03125 -0.90625q0.84375 -0.90625 0.84375 -2.421875q0 -1.421875 -0.8125 -2.25q-0.796875 -0.828125 -2.09375 -0.828125q-0.796875 0 -1.453125 0.375q-0.640625 0.359375 -1.015625 0.953125l-1.578125 -0.203125l1.328125 -7.0l6.765625 0l0 1.609375l-5.4375 0l-0.734375 3.640625q1.234375 -0.84375 2.578125 -0.84375q1.78125 0 3.0 1.234375q1.234375 1.234375 1.234375 3.171875q0 1.84375 -1.078125 3.1875q-1.3125 1.65625 -3.578125 1.65625q-1.859375 0 -3.03125 -1.03125q-1.171875 -1.046875 -1.34375 -2.765625z" fill-rule="nonzero"></path></g></svg>

